<svg width="282" height="280" viewBox="0 0 282 280" fill="none" xmlns="http://www.w3.org/2000/svg">
<path d="M0 155.88C0.820748 148.699 1.67923 141.518 2.52828 134.337C3.44337 126.618 4.35846 118.91 5.27354 111.192C6.11316 104.114 6.94334 97.0276 7.78296 89.9503C8.21692 86.275 8.61314 82.5997 9.1037 78.9338C9.18861 78.3024 9.5471 77.5956 9.99049 77.1338C27.4337 59.2002 44.9053 41.3044 62.3391 23.3614C63.7071 21.9478 65.1976 20.9677 67.0561 20.2892C82.7729 14.5312 98.4615 8.66958 114.188 2.9116C115.575 2.40272 117.141 2.32733 118.641 2.18597C126.754 1.42264 134.867 0.612186 142.989 0.0279077C145.018 -0.122874 147.122 0.367166 149.15 0.781815C166.036 4.16498 182.914 7.58583 199.791 11.0255C200.281 11.1292 200.8 11.4025 201.178 11.7417C222.696 30.8062 244.206 49.8895 265.687 69.001C266.168 69.4251 266.404 70.2356 266.536 70.9141C267.404 75.5695 268.224 80.2437 269.055 84.9085C271.177 96.8579 273.29 108.807 275.404 120.747C277.46 132.367 279.517 143.977 281.573 155.597C281.583 155.663 281.602 155.729 281.62 155.795C282.432 158.33 281.866 160.535 280.649 162.929C267.772 188.279 254.998 213.685 242.253 239.101C241.649 240.308 240.866 241.015 239.706 241.58C213.696 254.302 187.697 267.062 161.687 279.784C161.244 280.001 160.64 280.048 160.15 279.954C142.867 276.646 125.593 273.301 108.32 269.965C107.924 269.889 107.527 269.776 107.131 269.757C106.971 269.757 106.792 269.946 106.546 270.106C103.839 268.655 100.584 268.551 97.4709 267.92C90.7823 266.553 84.0654 265.328 77.3579 264.018C76.9522 263.943 76.5466 263.698 76.2069 263.443C61.9429 253.068 47.6789 242.701 33.4431 232.288C32.8488 231.855 32.4431 231.063 32.1318 230.356M194.932 118.759C165.678 123.16 136.659 127.523 107.518 131.915C122.405 157.293 137.178 182.483 152.027 207.795C166.338 178.101 180.593 148.538 194.942 118.768L194.932 118.759ZM198.008 119.362C183.602 149.245 169.291 178.94 154.886 208.832C183.621 203.951 212.121 199.116 240.791 194.244C226.508 169.252 212.31 144.401 198.008 119.362ZM194.687 115.724C171.414 93.1638 148.291 70.7633 125.037 48.2215C119.169 75.1642 113.348 101.919 107.49 128.842C136.593 124.46 165.499 120.116 194.687 115.724ZM149.31 209.153C134.471 183.859 119.744 158.754 104.971 133.564C88.3672 153.184 71.8391 172.71 55.2166 192.35C86.6503 197.966 117.867 203.536 149.31 209.153ZM128.584 47.4393C151.471 69.6136 174.168 91.6089 196.98 113.727C202.574 89.0456 208.121 64.5718 213.696 39.9662C185.253 42.4635 157.065 44.942 128.584 47.4393ZM102.716 263.962C118.15 246.669 133.49 229.48 148.942 212.159C118.037 206.636 87.2918 201.152 56.3109 195.62C71.8391 218.492 87.2352 241.156 102.716 263.962ZM41.4997 94.6905C62.6033 105.877 83.5371 116.968 104.546 128.107C110.254 101.881 115.933 75.8051 121.65 49.5597C94.8672 64.6472 68.2731 79.6217 41.5091 94.6999L41.4997 94.6905ZM53.509 189.664C70.1881 169.959 86.7069 150.451 103.282 130.859C82.0654 119.617 60.9335 108.412 39.5846 97.103C44.2355 128.051 48.8487 158.735 53.4996 189.664H53.509ZM200.338 117.317C214.508 142.121 228.583 166.755 242.772 191.586C248.706 165.379 254.583 139.435 260.479 113.378C240.442 114.688 220.498 115.998 200.338 117.317ZM239.545 197.523C211.149 202.348 183.055 207.117 154.801 211.914C166.131 226.954 177.348 241.844 188.612 256.79C205.555 237.075 222.451 217.408 239.545 197.514V197.523ZM216.234 42.4918C210.791 66.5132 205.395 90.3272 199.961 114.301C219.923 112.992 239.753 111.691 259.753 110.381C245.225 87.7074 230.791 65.1938 216.234 42.4918ZM66.8863 24.8032C58.2071 47.0435 49.5751 69.1707 40.8299 91.59C67.9146 76.3328 94.7257 61.2358 121.688 46.054C103.311 38.9296 85.1408 31.8805 66.8957 24.8126L66.8863 24.8032ZM186.055 258.43C174.621 243.248 163.348 228.292 152.027 213.261C136.801 230.328 121.641 247.31 106.301 264.499C133.008 262.463 159.423 260.456 186.055 258.43ZM36.8959 99.5909C25.9149 118.523 15.0848 137.183 4.22638 155.898C19.6319 167.292 34.962 178.629 50.509 190.116C45.9619 159.866 41.4525 129.879 36.8959 99.5909ZM210.772 37.1767C210.772 37.0919 210.781 37.0071 210.791 36.9223C188.933 26.0943 167.074 15.2757 145.169 4.42884C138.867 17.8578 132.631 31.1455 126.329 44.5933C154.603 42.1148 182.687 39.6458 210.772 37.1767ZM36.4148 229.979C56.8109 240.666 77.1315 251.315 97.4521 261.954C97.4992 261.898 97.537 261.851 97.5841 261.794C82.688 239.865 67.8014 217.926 52.8203 195.884C47.311 207.343 41.877 218.623 36.4148 229.979ZM123.49 43.5001C129.641 30.3821 135.725 17.4243 141.895 4.26864C118.037 10.5166 94.4238 16.6893 70.8108 22.8713C70.8202 22.9467 70.8296 23.0127 70.8391 23.0881C88.3578 29.8827 105.877 36.6678 123.48 43.5001H123.49ZM4.76411 160.064L4.60374 160.186C14.4433 182.568 24.2828 204.959 34.2167 227.548C39.6695 216.211 45.0374 205.053 50.4336 193.829C35.1884 182.558 19.9715 171.306 4.76411 160.054V160.064ZM62.4052 27.9508C62.3486 27.9225 62.292 27.8848 62.2354 27.8565C45.8864 44.6216 29.5375 61.396 13.0942 78.2647C21.2074 82.9955 29.1979 87.6508 37.2827 92.3628C45.6978 70.801 54.0562 49.3806 62.4146 27.9602L62.4052 27.9508ZM262.819 117.798C262.743 117.807 262.658 117.817 262.583 117.826C257.092 142.083 251.602 166.34 246.055 190.823C246.413 190.512 246.592 190.371 246.753 190.211C257.196 179.995 267.639 169.77 278.102 159.574C278.63 159.055 278.649 158.65 278.404 158.009C274.677 148.435 270.97 138.841 267.253 129.257C265.772 125.44 264.3 121.624 262.819 117.807V117.798ZM11.8867 81.073C9.14144 104.265 6.42448 127.297 3.69808 150.319C3.77356 150.338 3.84903 150.357 3.9245 150.376C14.5942 131.981 25.2734 113.585 35.9809 95.1145C27.9432 90.4309 19.9621 85.7755 11.8773 81.0636L11.8867 81.073ZM242.017 199.305C225.706 218.294 209.574 237.057 193.366 255.914C193.602 255.914 193.678 255.932 193.734 255.914C208.574 250.127 223.423 244.351 238.253 238.536C238.526 238.423 238.819 237.989 238.857 237.678C239.149 234.663 239.394 231.647 239.64 228.632C240.159 222.336 240.677 216.032 241.187 209.737C241.46 206.363 241.725 202.989 242.017 199.314V199.305ZM261.489 107.488C261.564 106.555 261.621 105.933 261.649 105.311C261.753 103.191 261.847 101.08 261.951 98.9595C262.404 90.0916 262.847 81.2238 263.319 72.3559C263.356 71.7057 263.168 71.3287 262.621 70.9612C248.592 61.5562 234.574 52.1324 220.555 42.7085C220.357 42.5766 220.13 42.4635 219.923 42.341L219.81 42.4729C233.64 64.0535 247.479 85.6341 261.479 107.479L261.489 107.488ZM275.205 166.877C275.205 166.877 275.13 166.821 275.092 166.792C274.998 166.868 274.894 166.934 274.809 167.009C265.13 176.471 255.451 185.932 245.791 195.413C245.517 195.676 245.357 196.157 245.319 196.553C245.13 198.456 244.998 200.369 244.838 202.283C244.121 210.934 243.404 219.585 242.696 228.226C242.611 229.301 242.545 230.375 242.47 231.449C242.536 231.459 242.592 231.468 242.659 231.478C253.507 209.944 264.356 188.411 275.205 166.868V166.877ZM182.555 261.973C182.536 261.898 182.517 261.813 182.489 261.738C158.687 263.547 134.876 265.356 111.075 267.166C112.037 267.59 113.018 267.778 113.99 267.967C129.15 270.888 144.301 273.819 159.47 276.712C160.018 276.816 160.753 276.637 161.216 276.326C168.102 271.736 174.961 267.109 181.829 262.482C182.074 262.322 182.31 262.143 182.546 261.964L182.555 261.973ZM211.913 34.1045C211.961 34.0668 212.008 34.0197 212.064 33.982C211.895 33.6993 211.725 33.4166 211.546 33.1433C207.555 27.0743 203.555 21.0054 199.593 14.9176C199.112 14.1825 198.555 13.8244 197.697 13.6454C186.187 11.3459 174.678 9.01826 163.169 6.69057C159.678 5.98378 156.187 5.28641 152.697 4.57963C152.678 4.63617 152.659 4.69271 152.631 4.74926C172.395 14.5406 192.149 24.3226 211.913 34.114V34.1045ZM265.913 84.4939C265.856 84.4939 265.809 84.475 265.753 84.4656C265.677 85.8415 265.592 87.2173 265.526 88.5932C265.121 96.3867 264.724 104.19 264.328 111.983C264.3 112.492 264.253 113.058 264.422 113.51C268.243 123.452 272.092 133.385 275.941 143.318C276.045 143.591 276.187 143.845 276.309 144.109L276.46 144.053C272.941 124.206 269.422 104.35 265.904 84.5033L265.913 84.4939ZM207.98 21.797C207.923 21.8253 207.876 21.8535 207.829 21.8912C207.904 22.0326 207.97 22.174 208.055 22.3059C211.234 27.1403 214.404 31.9748 217.602 36.7998C217.819 37.1202 218.13 37.4123 218.451 37.6291C227.885 43.9807 237.328 50.323 246.772 56.6652C246.989 56.816 247.234 56.9291 247.46 57.0705C247.498 57.0139 247.526 56.9668 247.564 56.9103C234.366 45.2058 221.178 33.5014 207.98 21.8064V21.797ZM50.6977 240.883C50.6977 240.883 50.6317 240.958 50.5939 240.996C50.6977 241.08 50.7921 241.175 50.8958 241.25C59.8109 247.743 68.7353 254.246 77.6598 260.72C77.9994 260.965 78.4333 261.125 78.8484 261.2C82.5748 261.935 86.3012 262.652 90.037 263.368C91.6597 263.679 93.2729 263.971 94.8955 264.273C94.9144 264.207 94.9332 264.131 94.9615 264.065C80.2069 256.338 65.4523 248.601 50.6977 240.873V240.883ZM128.971 4.52308C128.961 4.44769 128.952 4.3723 128.942 4.29691C126.065 4.56078 123.178 4.77753 120.31 5.09794C118.348 5.31469 116.31 5.40892 114.471 6.04032C108.216 8.20781 102.028 10.592 95.82 12.8915C95.5087 13.0045 95.2162 13.1553 94.9144 13.2967C94.9332 13.3344 94.9427 13.3815 94.9615 13.4192C106.301 10.4507 117.641 7.48217 128.98 4.51366L128.971 4.52308ZM206.819 254.312C206.8 254.264 206.781 254.217 206.763 254.17C206.555 254.227 206.338 254.264 206.13 254.34C200.744 256.432 195.357 258.533 189.97 260.635C189.81 260.692 189.64 260.739 189.508 260.833C187.14 262.473 184.772 264.122 182.404 265.771C181.857 266.148 181.31 266.525 180.763 266.911L180.857 267.043C189.508 262.802 198.168 258.552 206.819 254.312Z" fill="black" fill-opacity="0.8"/>
</svg>
